<?xml version="1.0" standalone="no"?>
<!DOCTYPE svg PUBLIC "-//W3C//DTD SVG 20010904//EN"
 "http://www.w3.org/TR/2001/REC-SVG-20010904/DTD/svg10.dtd">
<svg version="1.0" xmlns="http://www.w3.org/2000/svg"
 width="572.000000pt" height="570.000000pt" viewBox="0 0 572.000000 570.000000"
 preserveAspectRatio="xMidYMid meet">

<g transform="translate(0.000000,570.000000) scale(0.100000,-0.100000)"
fill="#2FB4AD" stroke="none">
<path d="M2840 5153 c-493 -24 -994 -216 -1380 -527 -437 -353 -744 -863 -849
-1409 -35 -184 -44 -300 -38 -521 5 -230 24 -362 78 -564 229 -861 944 -1533
1826 -1717 211 -43 546 -59 743 -35 268 34 523 110 765 229 470 231 835 590
1078 1061 459 886 311 1996 -363 2715 -382 408 -870 666 -1410 744 -129 19
-333 30 -450 24z m465 -247 c706 -129 1287 -567 1590 -1199 222 -462 273 -986
144 -1484 -146 -569 -520 -1062 -1025 -1354 -172 -99 -451 -212 -458 -186 -22
85 -89 265 -130 352 -97 205 -128 249 -291 415 -254 260 -269 286 -270 440 0
97 2 110 31 170 17 36 55 97 84 135 35 45 73 117 110 203 65 150 127 262 207
372 65 90 99 130 111 130 13 0 49 -136 63 -237 11 -74 10 -84 -8 -115 -10 -18
-59 -64 -108 -101 -257 -196 -329 -269 -396 -397 -30 -59 -34 -73 -34 -150 0
-129 24 -170 204 -353 80 -81 152 -147 160 -147 11 0 13 16 8 80 -6 92 -33
157 -115 284 -45 68 -52 85 -52 128 0 54 16 92 52 124 12 12 102 65 198 119
346 192 401 249 422 443 12 111 -3 376 -27 494 -50 235 -153 379 -372 520 -45
29 -82 58 -83 63 0 7 28 9 74 7 130 -7 233 35 325 133 93 98 135 237 114 374
-26 170 -129 296 -282 346 -85 28 -200 18 -288 -25 -94 -47 -173 -127 -221
-227 -36 -76 -37 -81 -37 -193 0 -104 3 -120 27 -173 15 -32 44 -78 64 -102
20 -25 34 -45 30 -45 -3 0 -51 18 -106 40 -171 69 -232 81 -440 87 -459 13
-968 -77 -1169 -207 -33 -21 -67 -52 -75 -69 -38 -73 -7 -178 88 -297 77 -95
150 -165 340 -323 77 -65 162 -141 188 -170 69 -76 74 -104 54 -258 -15 -116
-15 -137 -1 -227 8 -55 15 -114 15 -132 0 -40 12 -50 32 -26 25 28 45 92 64
200 18 103 27 122 38 78 7 -29 96 -129 150 -168 41 -30 83 -37 92 -15 2 7 -20
65 -50 128 -30 63 -73 169 -94 236 -22 67 -60 159 -85 205 -43 78 -180 281
-316 466 -34 45 -61 86 -61 90 0 4 93 8 208 9 206 2 334 14 359 35 20 16 17
-4 -17 -102 -47 -138 -71 -270 -77 -425 -5 -124 -3 -146 15 -190 11 -27 39
-97 62 -155 22 -58 61 -145 86 -193 24 -49 44 -100 44 -113 0 -27 -40 -74 -64
-74 -37 0 -126 44 -174 86 -29 26 -54 45 -56 43 -2 -2 -19 -42 -38 -89 -20
-47 -53 -128 -76 -181 -77 -183 -108 -368 -98 -574 7 -146 19 -212 70 -376 42
-137 86 -303 86 -324 0 -20 -219 92 -345 177 -347 233 -635 568 -790 916 -134
303 -195 585 -195 902 0 265 28 441 107 682 240 732 857 1286 1608 1444 68 14
154 29 192 34 112 14 505 5 608 -14z m-896 -3497 c27 -42 84 -118 128 -170 43
-52 111 -134 150 -184 76 -97 309 -433 320 -461 6 -16 -4 -17 -120 -11 -70 3
-131 9 -137 12 -6 4 -10 66 -10 155 l0 148 -57 73 c-31 41 -99 126 -152 189
-53 63 -109 132 -125 152 -27 36 -76 164 -76 196 1 21 10 10 79 -99z"/>
</g>
</svg>
