<?xml version="1.0" standalone="no"?>
<!DOCTYPE svg PUBLIC "-//W3C//DTD SVG 20010904//EN"
 "http://www.w3.org/TR/2001/REC-SVG-20010904/DTD/svg10.dtd">
<svg version="1.0" xmlns="http://www.w3.org/2000/svg"
 width="1024.000000pt" height="1024.000000pt" viewBox="0 0 1024.000000 1024.000000"
 preserveAspectRatio="xMidYMid meet">

<g transform="translate(0.000000,1024.000000) scale(0.100000,-0.100000)"
fill="#2FB4AD" stroke="none">
<path d="M0 5120 l0 -5120 5120 0 5120 0 0 5120 0 5120 -5120 0 -5120 0 0
-5120z m5470 4416 c192 -19 373 -47 535 -82 39 -9 78 -17 89 -20 50 -10 299
-85 401 -120 256 -90 545 -227 785 -372 89 -54 153 -95 160 -102 3 -3 46 -35
95 -70 97 -70 295 -236 295 -248 0 -4 -62 -72 -138 -152 l-139 -145 -80 70
c-160 139 -232 190 -455 324 -479 287 -1071 471 -1643 511 -235 17 -375 13
-660 -15 -83 -9 -137 -16 -190 -25 -27 -5 -66 -12 -85 -15 -61 -10 -251 -56
-357 -86 -90 -26 -159 -50 -383 -131 -102 -37 -376 -176 -510 -258 -63 -39
-241 -163 -274 -190 -11 -10 -66 -56 -120 -101 l-99 -84 -139 145 c-76 79
-137 149 -135 154 6 19 312 261 446 352 79 55 352 210 441 252 180 84 219 101
355 150 127 47 409 136 466 148 13 2 44 9 69 14 25 5 56 13 70 18 14 5 50 13
80 16 30 4 75 11 100 16 262 54 724 74 1020 46z m-3872 -462 c72 -17 139 -58
196 -123 405 -452 1348 -1412 1590 -1616 32 -28 102 -87 155 -133 226 -196
488 -376 686 -473 117 -57 336 -140 408 -154 10 -2 27 -7 37 -10 22 -7 24 -7
155 -30 143 -26 565 -26 637 0 7 2 24 6 38 9 211 37 488 146 700 276 52 32
249 168 260 180 3 3 32 25 65 50 167 125 318 256 523 449 210 200 973 975
1162 1181 352 383 357 387 458 401 83 12 127 -12 158 -86 18 -43 18 -135 1
-201 -29 -111 -499 -772 -909 -1277 -17 -21 -43 -53 -57 -71 -43 -56 -104
-130 -116 -141 -6 -5 -51 -61 -100 -124 -50 -62 -119 -148 -155 -191 -36 -42
-94 -112 -130 -155 -74 -89 -190 -225 -229 -270 -15 -16 -60 -70 -101 -120
-41 -49 -77 -92 -80 -95 -3 -3 -41 -50 -85 -105 -44 -55 -82 -102 -85 -105 -9
-8 -183 -261 -207 -300 -119 -200 -214 -461 -244 -673 -22 -159 -38 -402 -38
-582 0 -164 12 -434 24 -530 2 -16 8 -77 14 -135 10 -94 21 -200 36 -330 3
-25 8 -58 10 -75 3 -16 7 -43 9 -60 9 -77 28 -200 32 -206 2 -4 8 -38 14 -75
12 -83 18 -118 30 -164 4 -19 12 -57 16 -85 4 -27 8 -52 9 -55 2 -11 17 -87
21 -110 3 -14 9 -41 14 -60 5 -19 11 -46 14 -60 15 -77 30 -142 70 -299 25
-95 47 -175 49 -178 13 -12 302 140 447 235 168 110 240 163 410 303 190 157
461 441 572 601 18 25 58 81 89 125 157 217 348 612 447 923 86 268 127 480
162 824 28 275 25 461 -10 751 -6 50 -13 104 -15 120 -3 28 -27 151 -40 205
-3 14 -8 41 -11 60 -3 19 -10 46 -15 60 -5 14 -11 36 -14 49 -2 13 -12 49 -21
80 -10 31 -18 58 -19 61 -6 27 -57 167 -93 255 -96 238 -236 505 -344 659 -46
67 -56 91 -40 98 4 2 36 39 70 83 35 44 69 87 75 95 7 8 35 45 62 82 l50 68
18 -23 c19 -24 148 -227 209 -330 114 -190 299 -601 359 -797 28 -91 24 -79
33 -115 4 -16 12 -41 17 -55 5 -14 11 -34 14 -45 2 -11 10 -45 18 -75 13 -51
26 -111 48 -220 5 -25 19 -115 31 -200 19 -137 22 -200 22 -540 1 -375 -1
-414 -25 -570 -6 -41 -13 -87 -14 -101 -2 -15 -6 -46 -11 -70 -4 -24 -8 -51
-9 -59 -2 -20 -14 -76 -25 -125 -5 -22 -19 -78 -30 -125 -27 -118 -111 -368
-176 -530 -437 -1078 -1369 -1931 -2524 -2310 -178 -59 -487 -129 -660 -151
-41 -5 -129 -16 -195 -24 -139 -17 -586 -20 -710 -5 -44 5 -123 14 -175 20
-187 21 -255 32 -370 60 -19 5 -50 12 -69 15 -19 3 -37 8 -41 10 -4 2 -22 7
-41 10 -111 20 -380 109 -544 180 -16 7 -59 26 -95 41 -259 111 -630 335 -861
520 -328 262 -574 516 -791 819 -69 96 -164 240 -192 290 -9 17 -22 39 -29 50
-64 102 -182 337 -241 481 -88 217 -188 547 -219 724 -3 14 -12 63 -20 110
-40 218 -52 339 -62 655 -9 270 16 581 70 865 47 254 165 617 285 880 94 207
264 507 378 668 50 70 47 71 102 -8 14 -19 30 -42 37 -50 7 -8 48 -61 92 -118
l80 -102 -54 -78 c-108 -157 -256 -445 -342 -667 -68 -176 -138 -398 -159
-510 -2 -11 -9 -45 -16 -75 -6 -30 -12 -59 -13 -65 0 -5 -6 -35 -12 -65 -12
-58 -17 -92 -33 -255 -13 -125 -13 -573 0 -680 5 -44 14 -120 20 -170 12 -102
28 -184 71 -365 17 -69 32 -132 34 -140 8 -36 115 -341 140 -400 42 -100 148
-316 201 -410 44 -78 228 -359 243 -370 4 -3 18 -21 31 -40 27 -38 28 -39 120
-150 229 -274 627 -603 965 -797 84 -49 296 -155 300 -151 7 9 124 523 131
577 3 19 6 37 8 40 3 4 7 26 11 51 4 25 8 47 10 51 2 3 9 32 14 65 6 32 15 84
20 114 5 30 12 71 15 90 4 19 11 58 16 85 5 28 14 83 20 122 6 40 15 101 20
135 9 61 19 145 25 218 2 19 8 69 14 110 26 191 32 258 42 440 19 325 1 785
-36 964 -42 203 -90 349 -165 501 -123 248 -170 309 -785 1029 -52 61 -129
154 -230 278 -33 40 -114 138 -180 218 -212 256 -517 645 -635 810 -19 27 -74
102 -121 167 -139 192 -309 450 -340 516 -41 89 -50 206 -20 265 11 23 31 47
43 53 33 17 71 28 86 23 8 -2 26 -7 40 -10z m3712 -836 c313 -85 539 -337 580
-645 9 -71 8 -107 -3 -188 -20 -136 -20 -138 -71 -240 -56 -112 -131 -204
-227 -277 -148 -112 -286 -159 -469 -159 -63 0 -138 5 -165 10 -235 46 -460
229 -561 457 -73 166 -72 426 4 597 68 154 216 309 367 384 49 25 119 53 145
58 3 1 30 6 60 13 118 25 223 22 340 -10z"/>
<path d="M5046 3293 c-37 -92 -69 -175 -71 -183 -2 -8 -13 -37 -24 -65 -25
-61 -82 -211 -110 -285 -70 -189 -122 -333 -139 -385 -11 -33 -39 -112 -62
-175 -23 -63 -46 -126 -50 -140 -5 -14 -22 -62 -39 -106 l-30 -81 112 -17
c283 -41 521 -47 788 -21 145 14 289 35 289 41 0 2 -18 52 -40 111 -23 59 -49
131 -60 158 -18 49 -65 182 -195 545 -36 102 -95 262 -132 355 -36 94 -82 213
-103 265 -68 176 -56 177 -134 -17z"/>
</g>
</svg>
